<mxfile host="app.diagrams.net" modified="2023-10-06T09:02:28.692Z" agent="Mozilla/5.0 (Windows NT 10.0; Win64; x64) AppleWebKit/537.36 (KHTML, like Gecko) Chrome/117.0.0.0 Safari/537.36 Edg/117.0.2045.43" etag="Z7tkXKWZ4HAv5w2E-iuG" version="22.0.3" type="device">
  <diagram id="4gunxGNcOqAKrQzBJDMx" name="Page-1">
    <mxGraphModel dx="1873" dy="1385" grid="1" gridSize="10" guides="1" tooltips="1" connect="1" arrows="1" fold="1" page="1" pageScale="1" pageWidth="827" pageHeight="1169" math="0" shadow="0">
      <root>
        <mxCell id="0" />
        <mxCell id="1" parent="0" />
        <mxCell id="l3Uu0-RZ_nudHO4pfUp--7" value="" style="group" parent="1" vertex="1" connectable="0">
          <mxGeometry x="300" y="796" width="120" height="30" as="geometry" />
        </mxCell>
        <mxCell id="l3Uu0-RZ_nudHO4pfUp--6" value="" style="ellipse;whiteSpace=wrap;html=1;fillColor=#FFFFFF;" parent="l3Uu0-RZ_nudHO4pfUp--7" vertex="1">
          <mxGeometry width="117.6470588235294" height="30" as="geometry" />
        </mxCell>
        <mxCell id="l3Uu0-RZ_nudHO4pfUp--3" value="" style="verticalLabelPosition=bottom;verticalAlign=top;html=1;shape=mxgraph.basic.pie;startAngle=0.75;endAngle=0.9984085036175459;fillColor=#000000;" parent="l3Uu0-RZ_nudHO4pfUp--7" vertex="1">
          <mxGeometry width="120" height="30" as="geometry" />
        </mxCell>
        <mxCell id="l3Uu0-RZ_nudHO4pfUp--4" value="" style="verticalLabelPosition=bottom;verticalAlign=top;html=1;shape=mxgraph.basic.pie;startAngle=0.75;endAngle=0.9984085036175459;fillColor=#000000;rotation=-180;" parent="l3Uu0-RZ_nudHO4pfUp--7" vertex="1">
          <mxGeometry x="1.8823529411764706" width="115.29411764705883" height="30" as="geometry" />
        </mxCell>
        <mxCell id="l3Uu0-RZ_nudHO4pfUp--8" value="" style="endArrow=none;html=1;rounded=0;strokeWidth=12;" parent="1" edge="1">
          <mxGeometry width="50" height="50" relative="1" as="geometry">
            <mxPoint x="414.5" y="876" as="sourcePoint" />
            <mxPoint x="414.5" y="626" as="targetPoint" />
          </mxGeometry>
        </mxCell>
        <mxCell id="l3Uu0-RZ_nudHO4pfUp--9" value="" style="endArrow=none;dashed=1;html=1;rounded=0;strokeWidth=6;strokeColor=#0000FF;" parent="1" edge="1">
          <mxGeometry width="50" height="50" relative="1" as="geometry">
            <mxPoint x="110" y="706" as="sourcePoint" />
            <mxPoint x="750" y="706" as="targetPoint" />
          </mxGeometry>
        </mxCell>
        <mxCell id="l3Uu0-RZ_nudHO4pfUp--10" value="&lt;font style=&quot;font-size: 24px;&quot;&gt;Water Surface&lt;/font&gt;" style="edgeLabel;html=1;align=center;verticalAlign=middle;resizable=0;points=[];fontSize=24;" parent="l3Uu0-RZ_nudHO4pfUp--9" vertex="1" connectable="0">
          <mxGeometry x="0.3032" y="1" relative="1" as="geometry">
            <mxPoint x="-257" y="-19" as="offset" />
          </mxGeometry>
        </mxCell>
        <mxCell id="l3Uu0-RZ_nudHO4pfUp--11" value="" style="shape=curlyBracket;whiteSpace=wrap;html=1;rounded=1;flipH=1;fontSize=16;fillColor=#FFFFFF;" parent="1" vertex="1">
          <mxGeometry x="424" y="716" width="20" height="160" as="geometry" />
        </mxCell>
        <mxCell id="l3Uu0-RZ_nudHO4pfUp--12" value="&lt;p class=&quot;MsoNormal&quot; style=&quot;font-size: 24px;&quot;&gt;&lt;span lang=&quot;EN-US&quot; style=&quot;font-size: 24px;&quot;&gt;&lt;font style=&quot;font-size: 24px;&quot;&gt;Δz&lt;/font&gt;&lt;/span&gt;&lt;/p&gt;" style="text;html=1;strokeColor=none;fillColor=none;spacing=5;spacingTop=-20;whiteSpace=wrap;overflow=hidden;rounded=0;labelBackgroundColor=none;fontSize=24;" parent="1" vertex="1">
          <mxGeometry x="440" y="772" width="40" height="44" as="geometry" />
        </mxCell>
        <mxCell id="l3Uu0-RZ_nudHO4pfUp--13" value="" style="shape=mxgraph.signs.tech.camera_1;html=1;pointerEvents=1;fillColor=#000000;strokeColor=none;verticalLabelPosition=bottom;verticalAlign=top;align=center;rotation=90;" parent="1" vertex="1">
          <mxGeometry x="368.5" y="426" width="98" height="84" as="geometry" />
        </mxCell>
        <mxCell id="l3Uu0-RZ_nudHO4pfUp--15" value="" style="shape=flexArrow;endArrow=classic;html=1;rounded=0;fontSize=16;strokeColor=#000000;strokeWidth=6;movable=1;resizable=1;rotatable=1;deletable=1;editable=1;connectable=1;exitX=0.5;exitY=0;exitDx=0;exitDy=0;" parent="1" edge="1">
          <mxGeometry width="50" height="50" relative="1" as="geometry">
            <mxPoint x="645.453819981703" y="506.50864594297127" as="sourcePoint" />
            <mxPoint x="490" y="786" as="targetPoint" />
          </mxGeometry>
        </mxCell>
        <mxCell id="l3Uu0-RZ_nudHO4pfUp--16" value="" style="endArrow=classic;html=1;rounded=0;entryX=1;entryY=0.5;entryDx=0;entryDy=0;entryPerimeter=0;" parent="1" source="l3Uu0-RZ_nudHO4pfUp--4" target="l3Uu0-RZ_nudHO4pfUp--13" edge="1">
          <mxGeometry width="50" height="50" relative="1" as="geometry">
            <mxPoint x="418" y="796" as="sourcePoint" />
            <mxPoint x="140" y="886" as="targetPoint" />
          </mxGeometry>
        </mxCell>
        <mxCell id="6c0bV0T6CCxqr7LDbS5O-1" value="" style="shape=mxgraph.signs.nature.sun_2;html=1;pointerEvents=1;fillColor=#000000;strokeColor=none;verticalLabelPosition=bottom;verticalAlign=top;align=center;dashed=1;strokeWidth=3;fontSize=20;" parent="1" vertex="1">
          <mxGeometry x="610" y="370" width="140" height="140" as="geometry" />
        </mxCell>
        <mxCell id="6UtPvNtjDxON-05KW_C6-1" value="" style="group" parent="1" vertex="1" connectable="0">
          <mxGeometry x="420" y="866" width="120" height="30" as="geometry" />
        </mxCell>
        <mxCell id="6UtPvNtjDxON-05KW_C6-2" value="" style="ellipse;whiteSpace=wrap;html=1;fillColor=#FFFFFF;" parent="6UtPvNtjDxON-05KW_C6-1" vertex="1">
          <mxGeometry width="117.6470588235294" height="30" as="geometry" />
        </mxCell>
        <mxCell id="6UtPvNtjDxON-05KW_C6-3" value="" style="verticalLabelPosition=bottom;verticalAlign=top;html=1;shape=mxgraph.basic.pie;startAngle=0.75;endAngle=0.9984085036175459;fillColor=#000000;" parent="6UtPvNtjDxON-05KW_C6-1" vertex="1">
          <mxGeometry width="120" height="30" as="geometry" />
        </mxCell>
        <mxCell id="6UtPvNtjDxON-05KW_C6-4" value="" style="verticalLabelPosition=bottom;verticalAlign=top;html=1;shape=mxgraph.basic.pie;startAngle=0.75;endAngle=0.9984085036175459;fillColor=#000000;rotation=-180;" parent="6UtPvNtjDxON-05KW_C6-1" vertex="1">
          <mxGeometry x="1.8823529411764706" width="115.29411764705883" height="30" as="geometry" />
        </mxCell>
        <mxCell id="6UtPvNtjDxON-05KW_C6-5" value="" style="shape=curlyBracket;whiteSpace=wrap;html=1;rounded=1;flipH=1;fontSize=16;fillColor=#FFFFFF;direction=west;" parent="1" vertex="1">
          <mxGeometry x="388.5" y="816" width="21.5" height="60" as="geometry" />
        </mxCell>
        <mxCell id="6UtPvNtjDxON-05KW_C6-6" value="&lt;p class=&quot;MsoNormal&quot; style=&quot;font-size: 24px;&quot;&gt;&lt;span lang=&quot;EN-US&quot; style=&quot;font-size: 24px;&quot;&gt;&lt;font style=&quot;font-size: 24px;&quot;&gt;Δd&lt;/font&gt;&lt;/span&gt;&lt;/p&gt;" style="text;html=1;strokeColor=none;fillColor=none;spacing=5;spacingTop=-20;whiteSpace=wrap;overflow=hidden;rounded=0;labelBackgroundColor=none;fontSize=24;" parent="1" vertex="1">
          <mxGeometry x="351" y="817" width="48.5" height="44" as="geometry" />
        </mxCell>
        <mxCell id="6UtPvNtjDxON-05KW_C6-7" value="" style="endArrow=classic;html=1;rounded=0;" parent="1" source="6UtPvNtjDxON-05KW_C6-4" edge="1">
          <mxGeometry width="50" height="50" relative="1" as="geometry">
            <mxPoint x="372.48709483793516" y="806" as="sourcePoint" />
            <mxPoint x="420" y="516" as="targetPoint" />
          </mxGeometry>
        </mxCell>
        <mxCell id="6UtPvNtjDxON-05KW_C6-12" value="" style="endArrow=none;html=1;rounded=0;strokeWidth=12;" parent="1" edge="1">
          <mxGeometry width="50" height="50" relative="1" as="geometry">
            <mxPoint x="1141.5" y="876" as="sourcePoint" />
            <mxPoint x="1141.5" y="626" as="targetPoint" />
          </mxGeometry>
        </mxCell>
        <mxCell id="6UtPvNtjDxON-05KW_C6-13" value="" style="endArrow=none;dashed=1;html=1;rounded=0;strokeWidth=6;strokeColor=#0000FF;" parent="1" edge="1">
          <mxGeometry width="50" height="50" relative="1" as="geometry">
            <mxPoint x="836.9999999999999" y="706" as="sourcePoint" />
            <mxPoint x="1477" y="706" as="targetPoint" />
          </mxGeometry>
        </mxCell>
        <mxCell id="6UtPvNtjDxON-05KW_C6-14" value="&lt;font style=&quot;font-size: 24px;&quot;&gt;Water Surface&lt;/font&gt;" style="edgeLabel;html=1;align=center;verticalAlign=middle;resizable=0;points=[];fontSize=24;" parent="6UtPvNtjDxON-05KW_C6-13" vertex="1" connectable="0">
          <mxGeometry x="0.3032" y="1" relative="1" as="geometry">
            <mxPoint x="-257" y="-19" as="offset" />
          </mxGeometry>
        </mxCell>
        <mxCell id="6UtPvNtjDxON-05KW_C6-15" value="" style="shape=curlyBracket;whiteSpace=wrap;html=1;rounded=1;flipH=1;fontSize=16;fillColor=#FFFFFF;" parent="1" vertex="1">
          <mxGeometry x="1151" y="716" width="20" height="160" as="geometry" />
        </mxCell>
        <mxCell id="6UtPvNtjDxON-05KW_C6-16" value="&lt;p class=&quot;MsoNormal&quot; style=&quot;font-size: 24px;&quot;&gt;&lt;span lang=&quot;EN-US&quot; style=&quot;font-size: 24px;&quot;&gt;&lt;font style=&quot;font-size: 24px;&quot;&gt;Δz&lt;/font&gt;&lt;/span&gt;&lt;/p&gt;" style="text;html=1;strokeColor=none;fillColor=none;spacing=5;spacingTop=-20;whiteSpace=wrap;overflow=hidden;rounded=0;labelBackgroundColor=none;fontSize=24;" parent="1" vertex="1">
          <mxGeometry x="1167" y="770" width="43" height="36" as="geometry" />
        </mxCell>
        <mxCell id="6UtPvNtjDxON-05KW_C6-17" value="" style="shape=mxgraph.signs.tech.camera_1;html=1;pointerEvents=1;fillColor=#000000;strokeColor=none;verticalLabelPosition=bottom;verticalAlign=top;align=center;rotation=90;" parent="1" vertex="1">
          <mxGeometry x="1095.5" y="426" width="98" height="84" as="geometry" />
        </mxCell>
        <mxCell id="6UtPvNtjDxON-05KW_C6-18" value="" style="shape=flexArrow;endArrow=classic;html=1;rounded=0;fontSize=16;strokeColor=#000000;strokeWidth=6;movable=1;resizable=1;rotatable=1;deletable=1;editable=1;connectable=1;exitX=0.5;exitY=0;exitDx=0;exitDy=0;" parent="1" edge="1">
          <mxGeometry width="50" height="50" relative="1" as="geometry">
            <mxPoint x="1372.453819981703" y="506.50864594297127" as="sourcePoint" />
            <mxPoint x="1217" y="786" as="targetPoint" />
          </mxGeometry>
        </mxCell>
        <mxCell id="6UtPvNtjDxON-05KW_C6-20" value="" style="shape=mxgraph.signs.nature.sun_2;html=1;pointerEvents=1;fillColor=#000000;strokeColor=none;verticalLabelPosition=bottom;verticalAlign=top;align=center;dashed=1;strokeWidth=3;fontSize=20;" parent="1" vertex="1">
          <mxGeometry x="1337" y="370" width="140" height="140" as="geometry" />
        </mxCell>
        <mxCell id="6UtPvNtjDxON-05KW_C6-27" value="" style="endArrow=classic;html=1;rounded=0;" parent="1" edge="1">
          <mxGeometry width="50" height="50" relative="1" as="geometry">
            <mxPoint x="1204.082997582595" y="866" as="sourcePoint" />
            <mxPoint x="1147" y="516" as="targetPoint" />
          </mxGeometry>
        </mxCell>
        <mxCell id="6UtPvNtjDxON-05KW_C6-39" value="" style="group" parent="1" vertex="1" connectable="0">
          <mxGeometry x="1133" y="852" width="180" height="50" as="geometry" />
        </mxCell>
        <mxCell id="6UtPvNtjDxON-05KW_C6-28" value="" style="shape=parallelogram;perimeter=parallelogramPerimeter;whiteSpace=wrap;html=1;fixedSize=1;strokeWidth=3;fontSize=20;size=20;" parent="6UtPvNtjDxON-05KW_C6-39" vertex="1">
          <mxGeometry width="180" height="50" as="geometry" />
        </mxCell>
        <mxCell id="6UtPvNtjDxON-05KW_C6-29" value="" style="shape=parallelogram;perimeter=parallelogramPerimeter;whiteSpace=wrap;html=1;fixedSize=1;strokeWidth=3;fontSize=20;size=6.5;fillColor=#0050ef;strokeColor=#001DBC;fontColor=#ffffff;" parent="6UtPvNtjDxON-05KW_C6-39" vertex="1">
          <mxGeometry x="11.75" width="36.5" height="24" as="geometry" />
        </mxCell>
        <mxCell id="6UtPvNtjDxON-05KW_C6-30" value="" style="shape=parallelogram;perimeter=parallelogramPerimeter;whiteSpace=wrap;html=1;fixedSize=1;strokeWidth=3;fontSize=20;size=6.5;fillColor=#e51400;strokeColor=#B20000;fontColor=#ffffff;" parent="6UtPvNtjDxON-05KW_C6-39" vertex="1">
          <mxGeometry x="44.75" width="36.5" height="24" as="geometry" />
        </mxCell>
        <mxCell id="6UtPvNtjDxON-05KW_C6-31" value="" style="shape=parallelogram;perimeter=parallelogramPerimeter;whiteSpace=wrap;html=1;fixedSize=1;strokeWidth=3;fontSize=20;size=6.5;fillColor=#008a00;strokeColor=#005700;fontColor=#ffffff;" parent="6UtPvNtjDxON-05KW_C6-39" vertex="1">
          <mxGeometry x="78.25" width="36.5" height="24" as="geometry" />
        </mxCell>
        <mxCell id="6UtPvNtjDxON-05KW_C6-32" value="" style="shape=parallelogram;perimeter=parallelogramPerimeter;whiteSpace=wrap;html=1;fixedSize=1;strokeWidth=3;fontSize=20;size=6.5;fillColor=#6a00ff;strokeColor=#3700CC;fontColor=#ffffff;" parent="6UtPvNtjDxON-05KW_C6-39" vertex="1">
          <mxGeometry x="108.25" width="36.5" height="24" as="geometry" />
        </mxCell>
        <mxCell id="6UtPvNtjDxON-05KW_C6-33" value="" style="shape=parallelogram;perimeter=parallelogramPerimeter;whiteSpace=wrap;html=1;fixedSize=1;strokeWidth=3;fontSize=20;size=6.5;fillColor=#d80073;strokeColor=#A50040;fontColor=#ffffff;" parent="6UtPvNtjDxON-05KW_C6-39" vertex="1">
          <mxGeometry x="6.25" y="26" width="36.5" height="24" as="geometry" />
        </mxCell>
        <mxCell id="6UtPvNtjDxON-05KW_C6-34" value="" style="shape=parallelogram;perimeter=parallelogramPerimeter;whiteSpace=wrap;html=1;fixedSize=1;strokeWidth=3;fontSize=20;size=6.5;fillColor=#1ba1e2;strokeColor=#006EAF;fontColor=#ffffff;" parent="6UtPvNtjDxON-05KW_C6-39" vertex="1">
          <mxGeometry x="40" y="26" width="36.5" height="24" as="geometry" />
        </mxCell>
        <mxCell id="6UtPvNtjDxON-05KW_C6-35" value="" style="shape=parallelogram;perimeter=parallelogramPerimeter;whiteSpace=wrap;html=1;fixedSize=1;strokeWidth=3;fontSize=20;size=6.5;fillColor=#a20025;strokeColor=#6F0000;fontColor=#ffffff;" parent="6UtPvNtjDxON-05KW_C6-39" vertex="1">
          <mxGeometry x="71.75" y="26" width="36.5" height="24" as="geometry" />
        </mxCell>
        <mxCell id="6UtPvNtjDxON-05KW_C6-36" value="" style="shape=parallelogram;perimeter=parallelogramPerimeter;whiteSpace=wrap;html=1;fixedSize=1;strokeWidth=3;fontSize=20;size=6.5;fillColor=#f0a30a;strokeColor=#BD7000;fontColor=#000000;" parent="6UtPvNtjDxON-05KW_C6-39" vertex="1">
          <mxGeometry x="98.25" y="26" width="36.5" height="24" as="geometry" />
        </mxCell>
        <mxCell id="6UtPvNtjDxON-05KW_C6-37" value="" style="shape=parallelogram;perimeter=parallelogramPerimeter;whiteSpace=wrap;html=1;fixedSize=1;strokeWidth=3;fontSize=20;size=6.5;fillColor=#6d8764;strokeColor=#3A5431;fontColor=#ffffff;" parent="6UtPvNtjDxON-05KW_C6-39" vertex="1">
          <mxGeometry x="128.25" y="26" width="36.5" height="24" as="geometry" />
        </mxCell>
        <mxCell id="X7LHRpelPxeloaFRD9U5-1" value="" style="group;rotation=90;" parent="1" vertex="1" connectable="0">
          <mxGeometry x="574.0000000000001" y="1250" width="120" height="30" as="geometry" />
        </mxCell>
        <mxCell id="X7LHRpelPxeloaFRD9U5-2" value="" style="ellipse;whiteSpace=wrap;html=1;fillColor=#FFFFFF;rotation=90;" parent="X7LHRpelPxeloaFRD9U5-1" vertex="1">
          <mxGeometry x="1" y="-1" width="117.6470588235294" height="30" as="geometry" />
        </mxCell>
        <mxCell id="X7LHRpelPxeloaFRD9U5-3" value="" style="verticalLabelPosition=bottom;verticalAlign=top;html=1;shape=mxgraph.basic.pie;startAngle=0.75;endAngle=0.9984085036175459;fillColor=#000000;rotation=90;" parent="X7LHRpelPxeloaFRD9U5-1" vertex="1">
          <mxGeometry width="120" height="30" as="geometry" />
        </mxCell>
        <mxCell id="X7LHRpelPxeloaFRD9U5-4" value="" style="verticalLabelPosition=bottom;verticalAlign=top;html=1;shape=mxgraph.basic.pie;startAngle=0.75;endAngle=0.9984085036175459;fillColor=#000000;rotation=-90;" parent="X7LHRpelPxeloaFRD9U5-1" vertex="1">
          <mxGeometry x="2" width="115.29411764705883" height="30" as="geometry" />
        </mxCell>
        <mxCell id="X7LHRpelPxeloaFRD9U5-5" value="" style="endArrow=none;html=1;rounded=0;strokeWidth=12;" parent="1" edge="1">
          <mxGeometry width="50" height="50" relative="1" as="geometry">
            <mxPoint x="594" y="1320" as="sourcePoint" />
            <mxPoint x="854" y="1320" as="targetPoint" />
          </mxGeometry>
        </mxCell>
        <mxCell id="X7LHRpelPxeloaFRD9U5-6" value="" style="endArrow=none;dashed=1;html=1;rounded=0;strokeWidth=6;strokeColor=#0000FF;" parent="1" edge="1">
          <mxGeometry width="50" height="50" relative="1" as="geometry">
            <mxPoint x="497" y="1196" as="sourcePoint" />
            <mxPoint x="1137" y="1196" as="targetPoint" />
          </mxGeometry>
        </mxCell>
        <mxCell id="X7LHRpelPxeloaFRD9U5-7" value="&lt;font style=&quot;font-size: 24px;&quot;&gt;Water Surface&lt;/font&gt;" style="edgeLabel;html=1;align=center;verticalAlign=middle;resizable=0;points=[];fontSize=24;" parent="X7LHRpelPxeloaFRD9U5-6" vertex="1" connectable="0">
          <mxGeometry x="0.3032" y="1" relative="1" as="geometry">
            <mxPoint x="-269" y="-35" as="offset" />
          </mxGeometry>
        </mxCell>
        <mxCell id="X7LHRpelPxeloaFRD9U5-8" value="" style="shape=curlyBracket;whiteSpace=wrap;html=1;rounded=1;flipH=1;fontSize=16;fillColor=#FFFFFF;rotation=90;" parent="1" vertex="1">
          <mxGeometry x="709" y="1355" width="20" height="170" as="geometry" />
        </mxCell>
        <mxCell id="X7LHRpelPxeloaFRD9U5-9" value="&lt;p class=&quot;MsoNormal&quot; style=&quot;font-size: 24px;&quot;&gt;&lt;span lang=&quot;EN-US&quot; style=&quot;font-size: 24px;&quot;&gt;&lt;font style=&quot;font-size: 24px;&quot;&gt;Δz&lt;/font&gt;&lt;/span&gt;&lt;/p&gt;" style="text;html=1;strokeColor=none;fillColor=none;spacing=5;spacingTop=-20;whiteSpace=wrap;overflow=hidden;rounded=0;labelBackgroundColor=none;fontSize=24;" parent="1" vertex="1">
          <mxGeometry x="869" y="1480" width="46" height="40" as="geometry" />
        </mxCell>
        <mxCell id="X7LHRpelPxeloaFRD9U5-10" value="" style="shape=mxgraph.signs.tech.camera_1;html=1;pointerEvents=1;fillColor=#000000;strokeColor=none;verticalLabelPosition=bottom;verticalAlign=top;align=center;rotation=90;direction=south;" parent="1" vertex="1">
          <mxGeometry x="1156.67" y="1283" width="84" height="98" as="geometry" />
        </mxCell>
        <mxCell id="X7LHRpelPxeloaFRD9U5-11" value="" style="shape=flexArrow;endArrow=classic;html=1;rounded=0;fontSize=16;strokeColor=#000000;strokeWidth=6;movable=1;resizable=1;rotatable=1;deletable=1;editable=1;connectable=1;" parent="1" edge="1">
          <mxGeometry width="50" height="50" relative="1" as="geometry">
            <mxPoint x="964" y="1130" as="sourcePoint" />
            <mxPoint x="877" y="1276" as="targetPoint" />
          </mxGeometry>
        </mxCell>
        <mxCell id="X7LHRpelPxeloaFRD9U5-12" value="" style="endArrow=classic;html=1;rounded=0;entryX=1;entryY=0.5;entryDx=0;entryDy=0;entryPerimeter=0;" parent="1" source="X7LHRpelPxeloaFRD9U5-4" target="X7LHRpelPxeloaFRD9U5-10" edge="1">
          <mxGeometry width="50" height="50" relative="1" as="geometry">
            <mxPoint x="1199.17" y="1660" as="sourcePoint" />
            <mxPoint x="921.1700000000001" y="1750" as="targetPoint" />
          </mxGeometry>
        </mxCell>
        <mxCell id="X7LHRpelPxeloaFRD9U5-13" value="" style="shape=mxgraph.signs.nature.sun_2;html=1;pointerEvents=1;fillColor=#000000;strokeColor=none;verticalLabelPosition=bottom;verticalAlign=top;align=center;dashed=1;strokeWidth=3;fontSize=20;" parent="1" vertex="1">
          <mxGeometry x="959.5" y="990" width="140" height="140" as="geometry" />
        </mxCell>
        <mxCell id="X7LHRpelPxeloaFRD9U5-14" value="" style="group;rotation=90;" parent="1" vertex="1" connectable="0">
          <mxGeometry x="744" y="1360" width="120" height="30" as="geometry" />
        </mxCell>
        <mxCell id="X7LHRpelPxeloaFRD9U5-15" value="" style="ellipse;whiteSpace=wrap;html=1;fillColor=#FFFFFF;rotation=90;" parent="X7LHRpelPxeloaFRD9U5-14" vertex="1">
          <mxGeometry x="1" y="-1" width="117.6470588235294" height="30" as="geometry" />
        </mxCell>
        <mxCell id="X7LHRpelPxeloaFRD9U5-16" value="" style="verticalLabelPosition=bottom;verticalAlign=top;html=1;shape=mxgraph.basic.pie;startAngle=0.75;endAngle=0.9984085036175459;fillColor=#000000;rotation=90;" parent="X7LHRpelPxeloaFRD9U5-14" vertex="1">
          <mxGeometry width="120" height="30" as="geometry" />
        </mxCell>
        <mxCell id="X7LHRpelPxeloaFRD9U5-17" value="" style="verticalLabelPosition=bottom;verticalAlign=top;html=1;shape=mxgraph.basic.pie;startAngle=0.75;endAngle=0.9984085036175459;fillColor=#000000;rotation=-90;" parent="X7LHRpelPxeloaFRD9U5-14" vertex="1">
          <mxGeometry x="2" width="115.29411764705883" height="30" as="geometry" />
        </mxCell>
        <mxCell id="X7LHRpelPxeloaFRD9U5-19" value="&lt;p class=&quot;MsoNormal&quot; style=&quot;font-size: 24px;&quot;&gt;&lt;span lang=&quot;EN-US&quot; style=&quot;font-size: 24px;&quot;&gt;&lt;font style=&quot;font-size: 24px;&quot;&gt;Δd&lt;/font&gt;&lt;/span&gt;&lt;/p&gt;" style="text;html=1;strokeColor=none;fillColor=none;spacing=5;spacingTop=-20;whiteSpace=wrap;overflow=hidden;rounded=0;labelBackgroundColor=none;fontSize=24;" parent="1" vertex="1">
          <mxGeometry x="698" y="1430" width="46" height="40" as="geometry" />
        </mxCell>
        <mxCell id="X7LHRpelPxeloaFRD9U5-20" value="" style="endArrow=classic;html=1;rounded=0;entryX=1;entryY=0.5;entryDx=0;entryDy=0;entryPerimeter=0;" parent="1" source="X7LHRpelPxeloaFRD9U5-17" target="X7LHRpelPxeloaFRD9U5-10" edge="1">
          <mxGeometry width="50" height="50" relative="1" as="geometry">
            <mxPoint x="1153.6570948379351" y="1670" as="sourcePoint" />
            <mxPoint x="1201.17" y="1380" as="targetPoint" />
          </mxGeometry>
        </mxCell>
        <mxCell id="X7LHRpelPxeloaFRD9U5-24" value="" style="shape=curlyBracket;whiteSpace=wrap;html=1;rounded=1;flipH=1;fontSize=16;fillColor=#FFFFFF;rotation=90;" parent="1" vertex="1">
          <mxGeometry x="879" y="1230" width="20" height="514.69" as="geometry" />
        </mxCell>
        <mxCell id="X7LHRpelPxeloaFRD9U5-26" value="" style="endArrow=none;dashed=1;html=1;rounded=0;exitX=0.25;exitY=1;exitDx=0;exitDy=0;" parent="1" source="X7LHRpelPxeloaFRD9U5-24" edge="1">
          <mxGeometry width="50" height="50" relative="1" as="geometry">
            <mxPoint x="634" y="1420" as="sourcePoint" />
            <mxPoint x="634" y="1325" as="targetPoint" />
          </mxGeometry>
        </mxCell>
        <mxCell id="X7LHRpelPxeloaFRD9U5-28" value="" style="endArrow=none;dashed=1;html=1;rounded=0;exitX=0.5;exitY=0;exitDx=0;exitDy=0;" parent="1" source="X7LHRpelPxeloaFRD9U5-24" edge="1">
          <mxGeometry width="50" height="50" relative="1" as="geometry">
            <mxPoint x="1148.36" y="1427.5" as="sourcePoint" />
            <mxPoint x="1148.36" y="1322.5" as="targetPoint" />
          </mxGeometry>
        </mxCell>
      </root>
    </mxGraphModel>
  </diagram>
</mxfile>
